<svg width="599" height="570" viewBox="0 0 599 570" fill="none" xmlns="http://www.w3.org/2000/svg">
<rect width="334.564" height="132.513" transform="matrix(0.91069 -0.413091 2.80407e-08 1 294.211 437.487)" fill="#EEBF38"/>
<rect width="178.573" height="298.858" transform="matrix(0.91043 0.413662 -2.7994e-08 1 1.52588e-05 137.638)" fill="url(#paint0_linear)"/>
<rect width="144.506" height="132.084" transform="matrix(0.91069 0.413091 -2.80407e-08 1 162.61 378.222)" fill="#FAC631"/>
<rect width="334.889" height="144.086" transform="matrix(0.91069 -0.413091 0.91069 0.413091 162.555 378.184)" fill="#FFD046"/>
<rect width="273.748" height="167.244" transform="matrix(0.91069 0.413091 -2.80407e-08 1 184.067 94.0373)" fill="url(#paint1_linear)"/>
<rect width="153.439" height="167.412" transform="matrix(0.91069 -0.413091 4.53734e-08 1 162.61 211.153)" fill="#FF963C"/>
<rect width="153.563" height="178.282" transform="matrix(0.910431 -0.413662 0.91043 0.413662 0.00828552 137.641)" fill="#FFBA34"/>
<rect width="179.688" height="167.239" transform="matrix(0.91069 -0.413091 2.80407e-08 1 433.36 207.127)" fill="#BD181F"/>
<rect width="323.066" height="179.846" transform="matrix(0.91125 0.411854 -0.91125 0.411854 302.86 0)" fill="#E3272E"/>
<defs>
<linearGradient id="paint0_linear" x1="26.2037" y1="235.155" x2="174.552" y2="240.839" gradientUnits="userSpaceOnUse">
<stop offset="0.0577333" stop-color="#FF9A24" stop-opacity="0.8"/>
<stop offset="1" stop-color="#FF8A00"/>
</linearGradient>
<linearGradient id="paint1_linear" x1="273.748" y1="86.358" x2="110.254" y2="40.4821" gradientUnits="userSpaceOnUse">
<stop offset="0.200886" stop-color="#D92027"/>
<stop offset="1" stop-color="#DE2229" stop-opacity="0.92"/>
</linearGradient>
</defs>
</svg>
