<svg width="30" height="26" viewBox="0 0 30 26" fill="none" xmlns="http://www.w3.org/2000/svg">
<path fill-rule="evenodd" clip-rule="evenodd" d="M16.3333 4.78285C15.8978 4.72957 15.4526 4.702 14.9999 4.702C14.5472 4.702 14.1021 4.72957 13.6666 4.78285V0.191546C14.1057 0.157699 14.5505 0.140408 14.9999 0.140408C15.4494 0.140408 15.8941 0.157699 16.3333 0.191546V4.78285ZM8.33325 12.6848C8.33325 15.8339 11.318 18.3868 14.9999 18.3868C18.6818 18.3868 21.6666 15.8339 21.6666 12.6848C21.6666 9.53567 18.6818 6.9828 14.9999 6.9828C11.318 6.9828 8.33325 9.53567 8.33325 12.6848ZM18.9999 12.6848C18.9999 14.5743 17.2091 16.106 14.9999 16.106C12.7908 16.106 10.9999 14.5743 10.9999 12.6848C10.9999 10.7953 12.7908 9.2636 14.9999 9.2636C17.2091 9.2636 18.9999 10.7953 18.9999 12.6848ZM16.3333 25.1781V20.5868C15.8978 20.64 15.4526 20.6676 14.9999 20.6676C14.5472 20.6676 14.1021 20.64 13.6666 20.5868V25.1781C14.1057 25.2119 14.5505 25.2292 14.9999 25.2292C15.4494 25.2292 15.8941 25.2119 16.3333 25.1781ZM24.2387 11.5444H29.6068C29.6464 11.92 29.6666 12.3004 29.6666 12.6848C29.6666 13.0692 29.6464 13.4496 29.6068 13.8252H24.2387C24.301 13.4527 24.3333 13.072 24.3333 12.6848C24.3333 12.2976 24.301 11.9169 24.2387 11.5444ZM5.66658 12.6848C5.66658 12.2976 5.69881 11.9169 5.7611 11.5444H0.393043C0.353469 11.92 0.333252 12.3004 0.333252 12.6848C0.333252 13.0692 0.353469 13.4496 0.393043 13.8252H5.7611C5.69881 13.4527 5.66658 13.072 5.66658 12.6848ZM20.5895 6.29128L24.3853 3.0447C25.0694 3.53242 25.7007 4.0724 26.2709 4.65746L22.4751 7.90405C21.9397 7.29268 21.3043 6.74916 20.5895 6.29128ZM3.72889 4.65746L7.52474 7.90405C8.06009 7.29268 8.69556 6.74916 9.41035 6.29128L5.61451 3.0447C4.93046 3.53242 4.29912 4.0724 3.72889 4.65746ZM22.4751 17.4655L26.2709 20.7121C25.7007 21.2972 25.0694 21.8372 24.3853 22.3249L20.5895 19.0783C21.3043 18.6204 21.9397 18.0769 22.4751 17.4655ZM5.61451 22.3249L9.41035 19.0783C8.69556 18.6204 8.06009 18.0769 7.52474 17.4655L3.72889 20.7121C4.29912 21.2972 4.93046 21.8372 5.61451 22.3249Z" fill="black"/>
</svg>
