<?xml version="1.0" encoding="UTF-8"?>
<svg width="512px" height="512px" viewBox="0 0 512 512" version="1.1" xmlns="http://www.w3.org/2000/svg" xmlns:xlink="http://www.w3.org/1999/xlink">
    <g id="Symbols" stroke="none" stroke-width="1">
        <g id="3601134">
            <g id="Shape">
                <path id="gear" d="M512,298.874478 L512,213.125522 L444.16502,201.819357 C440.113192,187.72229 434.482196,174.148267 427.349333,161.278996 L467.336533,105.297318 L406.702682,44.6634667 L350.721004,84.6506667 C337.850729,77.5168 324.27771,71.8858039 310.180643,67.8349804 L298.874478,0 L213.125522,0 L201.819357,67.8349804 C187.72229,71.8868078 174.148267,77.5178039 161.278996,84.6506667 L105.297318,44.6634667 L44.6634667,105.297318 L84.6506667,161.278996 C77.5168,174.149271 71.8858039,187.72229 67.8349804,201.819357 L5.68434189e-14,213.125522 L5.68434189e-14,298.874478 L67.8349804,310.180643 C71.8868078,324.27771 77.5178039,337.851733 84.6506667,350.721004 L44.6634667,406.702682 L105.297318,467.336533 L161.278996,427.349333 C174.149271,434.4832 187.72229,440.114196 201.819357,444.166024 L213.125522,512 L298.874478,512 L310.179639,444.16502 C324.276706,440.113192 337.850729,434.4832 350.72,427.348329 L406.701678,467.335529 L467.335529,406.701678 L427.348329,350.72 C434.482196,337.849725 440.113192,324.276706 444.164016,310.179639 L512,298.874478 Z M427.998871,403.446965 L403.445961,427.998871 L352.081318,391.309553 C347.047655,394.016125 326.926055,409.644173 293.53462,417.378384 L283.732329,419.648251 L273.360816,481.882353 L238.639184,481.882353 L228.266667,419.648251 C222.551341,417.926525 197.666133,414.861553 168.454024,396.636361 L159.917678,391.309553 L108.553035,427.998871 L84.0001255,403.446965 L120.689443,352.082322 C117.93669,346.964329 102.350808,326.909992 94.6206118,293.535624 L92.3507451,283.733333 L30.1176471,273.360816 L30.1176471,238.639184 L92.351749,228.266667 C94.0724706,222.551341 97.1384471,197.666133 115.363639,168.454024 L120.690447,159.917678 L84.0011294,108.553035 L108.554039,84.0001255 L159.918682,120.689443 C165.036675,117.93669 185.091012,102.350808 218.46538,94.6206118 L228.267671,92.3507451 L238.639184,30.1176471 L273.360816,30.1176471 L283.732329,92.351749 C289.444643,94.0714667 314.334871,97.1384471 343.544973,115.363639 L352.081318,120.690447 L403.445961,84.0011294 L427.998871,108.554039 L391.309553,159.918682 C394.061302,165.036675 409.648188,185.091012 417.378384,218.46538 L419.648251,228.267671 L481.882353,238.639184 L481.882353,273.360816 L419.648251,283.733333 C417.927529,289.448659 414.861553,314.333867 396.636361,343.545976 L391.309553,352.082322 L427.998871,403.446965 Z"></path>
                <path d="M256,128 C185.420298,128 128,185.420298 128,256 C128,326.579702 185.420298,384 256,384 C326.579702,384 384,326.579702 384,256 C384,185.420298 326.579702,128 256,128 Z M212.054337,343.44458 C216.778792,323.551875 234.682729,308.705882 256,308.705882 C277.317271,308.705882 295.221208,323.551875 299.945663,343.44458 C272.358902,357.364957 239.653145,357.371984 212.054337,343.44458 Z M233.411765,256 C233.411765,243.544345 243.544345,233.411765 256,233.411765 C268.455655,233.411765 278.588235,243.544345 278.588235,256 C278.588235,268.455655 268.455655,278.588235 256,278.588235 C243.544345,278.588235 233.411765,268.455655 233.411765,256 Z M325.476392,324.878055 C319.457882,310.514949 309.104439,298.411671 296.069522,290.182525 C303.938259,280.971545 308.705882,269.035922 308.705882,256 C308.705882,226.937475 285.062525,203.294118 256,203.294118 C226.937475,203.294118 203.294118,226.937475 203.294118,256 C203.294118,269.034918 208.060737,280.971545 215.930478,290.182525 C202.895561,298.411671 192.542118,310.514949 186.523608,324.878055 C168.975059,307.177914 158.117647,282.83382 158.117647,256 C158.117647,202.027169 202.027169,158.117647 256,158.117647 C309.972831,158.117647 353.882353,202.027169 353.882353,256 C353.882353,282.83382 343.024941,307.177914 325.476392,324.878055 Z"></path>
            </g>
        </g>
    </g>
</svg>
