<svg width="22" height="22" viewBox="0 0 22 22" fill="#ffffff" xmlns="http://www.w3.org/2000/svg">
<path d="M6.875 16.5C6.46708 16.5 6.06831 16.621 5.72914 16.8476C5.38996 17.0742 5.12561 17.3963 4.9695 17.7732C4.81339 18.1501 4.77255 18.5648 4.85213 18.9649C4.93171 19.365 5.12815 19.7325 5.41659 20.0209C5.70504 20.3094 6.07254 20.5058 6.47263 20.5854C6.87271 20.665 7.28741 20.6241 7.66429 20.468C8.04116 20.3119 8.36328 20.0475 8.58991 19.7084C8.81654 19.3692 8.9375 18.9704 8.9375 18.5625C8.9375 18.0155 8.7202 17.4909 8.33341 17.1041C7.94662 16.7173 7.42201 16.5 6.875 16.5ZM6.875 19.25C6.73903 19.25 6.6061 19.2097 6.49305 19.1341C6.37999 19.0586 6.29187 18.9512 6.23983 18.8256C6.1878 18.7 6.17418 18.5617 6.20071 18.4284C6.22724 18.295 6.29272 18.1725 6.38887 18.0764C6.48501 17.9802 6.60751 17.9147 6.74088 17.8882C6.87424 17.8617 7.01247 17.8753 7.1381 17.9273C7.26372 17.9794 7.37109 18.0675 7.44664 18.1805C7.52218 18.2936 7.5625 18.4265 7.5625 18.5625C7.5625 18.7448 7.49007 18.9197 7.36114 19.0486C7.23221 19.1776 7.05734 19.25 6.875 19.25Z"/>
<path d="M15.125 16.5C14.7171 16.5 14.3183 16.621 13.9791 16.8476C13.64 17.0742 13.3756 17.3963 13.2195 17.7732C13.0634 18.1501 13.0225 18.5648 13.1021 18.9649C13.1817 19.365 13.3781 19.7325 13.6666 20.0209C13.955 20.3094 14.3225 20.5058 14.7226 20.5854C15.1227 20.665 15.5374 20.6241 15.9143 20.468C16.2912 20.3119 16.6133 20.0475 16.8399 19.7084C17.0665 19.3692 17.1875 18.9704 17.1875 18.5625C17.1875 18.0155 16.9702 17.4909 16.5834 17.1041C16.1966 16.7173 15.672 16.5 15.125 16.5ZM15.125 19.25C14.989 19.25 14.8561 19.2097 14.743 19.1341C14.63 19.0586 14.5419 18.9512 14.4898 18.8256C14.4378 18.7 14.4242 18.5617 14.4507 18.4284C14.4772 18.295 14.5427 18.1725 14.6389 18.0764C14.735 17.9802 14.8575 17.9147 14.9909 17.8882C15.1242 17.8617 15.2625 17.8753 15.3881 17.9273C15.5137 17.9794 15.6211 18.0675 15.6966 18.1805C15.7722 18.2936 15.8125 18.4265 15.8125 18.5625C15.8125 18.7448 15.7401 18.9197 15.6111 19.0486C15.4822 19.1776 15.3073 19.25 15.125 19.25Z"/>
<path d="M4.66125 4.125L4.36562 2.93562C4.25377 2.48974 3.99615 2.09401 3.63369 1.81127C3.27123 1.52852 2.8247 1.37497 2.365 1.375H1.375V2.75H2.365C2.52205 2.74542 2.67593 2.79478 2.80102 2.88985C2.92611 2.98491 3.01486 3.11996 3.0525 3.2725L5.5 13.2275L5.75437 14.2519C5.86707 14.7012 6.12776 15.0995 6.49443 15.3826C6.8611 15.6657 7.3124 15.8172 7.77563 15.8125H17.1875V14.4375H7.77563C7.61858 14.4421 7.4647 14.3927 7.33961 14.2977C7.21452 14.2026 7.12577 14.0675 7.08813 13.915L7.00562 13.5712L17.1875 11.1719C17.5567 11.086 17.8952 10.9001 18.1656 10.6345C18.4361 10.3689 18.6281 10.0339 18.7206 9.66625L20.0956 4.125H4.66125ZM17.4144 9.33625C17.3832 9.45937 17.3185 9.57144 17.2275 9.66003C17.1364 9.74862 17.0227 9.81026 16.8988 9.83813L6.68937 12.2375L5.005 5.5H18.37L17.4144 9.33625Z"/>
</svg>
