<svg width="28" height="28" viewBox="0 0 28 28" fill="#000000" xmlns="http://www.w3.org/2000/svg">
<g id="24 / basic / case">
<path id="icon" fill-rule="evenodd" clip-rule="evenodd" d="M11.6666 3.5H16.3333C17.6219 3.5 18.6666 4.54467 18.6666 5.83333V7H23.3333C24.6219 7 25.6666 8.04467 25.6666 9.33333V22.1667C25.6666 23.4553 24.6219 24.5 23.3333 24.5H4.66659C3.37792 24.5 2.33325 23.4553 2.33325 22.1667V9.33333C2.33325 8.04467 3.37792 7 4.66659 7H9.33325V5.83333C9.33325 4.54467 10.3779 3.5 11.6666 3.5ZM4.66659 9.33333H9.33325H18.6666H23.3333V15.1667H15.1666H12.8333H4.66659V9.33333ZM4.66659 22.1667V17.5H12.8333V18.6667H15.1666V17.5H23.3333V22.1667H4.66659ZM16.3333 5.83333V7H11.6666V5.83333H16.3333Z"/>
</g>
</svg>
