<svg width="28" height="28" viewBox="0 0 28 28" fill="#000000" xmlns="http://www.w3.org/2000/svg">
<g id="24 / software / code">
<path id="icon" fill-rule="evenodd" clip-rule="evenodd" d="M14.0001 26.8333C6.91243 26.8333 1.16675 21.0876 1.16675 14C1.16675 6.9123 6.91243 1.16663 14.0001 1.16663C21.0877 1.16663 26.8334 6.9123 26.8334 14C26.8334 21.0876 21.0877 26.8333 14.0001 26.8333ZM14.0001 24.5C19.7991 24.5 24.5001 19.799 24.5001 14C24.5001 8.20097 19.7991 3.49996 14.0001 3.49996C8.20109 3.49996 3.50008 8.20097 3.50008 14C3.50008 19.799 8.20109 24.5 14.0001 24.5ZM9.67511 19.4916L11.325 17.8417L7.48331 14L11.325 10.1582L9.67511 8.50833L4.18348 14L9.67511 19.4916ZM16.6751 10.1582L18.3251 8.50833L23.8167 14L18.3251 19.4916L16.6751 17.8417L20.5168 14L16.6751 10.1582ZM11.6826 20.8082L13.9842 21.1918L16.3176 7.19175L14.016 6.80816L11.6826 20.8082Z"/>
</g>
</svg>
