              <svg width="30" height="30" viewBox="0 0 30 30" fill="black" xmlns="http://www.w3.org/2000/svg">
                <g id="24 / basic / pencil-create">
                  <path id="icon" fill-rule="evenodd" clip-rule="evenodd" d="M20.5467 2.5C21.3651 2.5 22.1497 2.82677 22.7226 3.40428L26.5988 7.2804C27.1759 7.8575 27.5001 8.64021 27.5001 9.45635C27.5001 10.2725 27.1759 11.0552 26.5988 11.6323L12.4469 25.7797C11.5738 26.7869 10.3361 27.4057 8.91825 27.5029H2.5V26.2529L2.50406 20.9841C2.61055 19.666 3.22333 18.4404 4.15812 17.6168L18.3692 3.40579C18.9455 2.82604 19.7292 2.5 20.5467 2.5ZM8.82998 25.006C9.49776 24.9588 10.1194 24.648 10.6185 24.077L20.0709 14.6246L15.3779 9.93149L5.87013 19.437C5.36369 19.8849 5.05039 20.5115 5 21.0848V25.0037L8.82998 25.006ZM17.1459 8.16394L21.8386 12.8569L24.831 9.86453C24.9392 9.75627 25.0001 9.60945 25.0001 9.45635C25.0001 9.30325 24.9392 9.15643 24.831 9.04817L20.9514 5.16857C20.8444 5.06068 20.6987 5 20.5467 5C20.3947 5 20.249 5.06068 20.142 5.16857L17.1459 8.16394Z"/>
                </g>
              </svg>