<svg width="19" height="19" viewBox="0 0 19 19" fill="none" xmlns="http://www.w3.org/2000/svg">
<path d="M9.5 1.1875C7.85595 1.1875 6.24881 1.67502 4.88183 2.58841C3.51484 3.5018 2.44941 4.80003 1.82026 6.31894C1.1911 7.83785 1.02649 9.50922 1.34723 11.1217C1.66797 12.7342 2.45965 14.2153 3.62218 15.3778C4.7847 16.5403 6.26585 17.332 7.87832 17.6528C9.49078 17.9735 11.1621 17.8089 12.6811 17.1797C14.2 16.5506 15.4982 15.4852 16.4116 14.1182C17.325 12.7512 17.8125 11.1441 17.8125 9.5C17.8125 7.29539 16.9367 5.18107 15.3778 3.62217C13.8189 2.06328 11.7046 1.1875 9.5 1.1875ZM9.5 16.625C8.09081 16.625 6.71327 16.2071 5.54157 15.4242C4.36987 14.6413 3.45664 13.5285 2.91736 12.2266C2.37809 10.9247 2.23699 9.4921 2.51191 8.10998C2.78683 6.72787 3.46542 5.45831 4.46187 4.46186C5.45832 3.46542 6.72787 2.78682 8.10999 2.5119C9.4921 2.23699 10.9247 2.37808 12.2266 2.91736C13.5285 3.45663 14.6413 4.36986 15.4242 5.54156C16.2071 6.71326 16.625 8.09081 16.625 9.5C16.625 11.3897 15.8743 13.2019 14.5381 14.5381C13.2019 15.8743 11.3897 16.625 9.5 16.625Z" fill="#2F6BF0"/>
<path d="M11.6017 6.56104L9.49985 8.66291L7.39798 6.56104L6.56079 7.39822L8.66267 9.5001L6.56079 11.602L7.39798 12.4392L9.49985 10.3373L11.6017 12.4392L12.4389 11.602L10.337 9.5001L12.4389 7.39822L11.6017 6.56104Z" fill="#2F6BF0"/>
</svg>
