<svg width="47" height="45" viewBox="0 0 47 45" xmlns="http://www.w3.org/2000/svg">
<path fill-rule="evenodd" clip-rule="evenodd" d="M23.5002 0C10.5231 0 0 10.3281 0 23.0695C0 33.2623 6.73352 41.9099 16.0709 44.9604C17.2453 45.1739 17.6765 44.4599 17.6765 43.8506C17.6765 43.3004 17.6547 41.4831 17.6446 39.5554C11.1068 40.951 9.72728 36.8335 9.72728 36.8335C8.65827 34.1669 7.118 33.4579 7.118 33.4579C4.98583 32.0261 7.27872 32.0555 7.27872 32.0555C9.63855 32.2178 10.8811 34.4328 10.8811 34.4328C12.9771 37.9597 16.3787 36.9401 17.7197 36.3506C17.9306 34.8599 18.5397 33.8415 19.2117 33.2657C13.992 32.6824 8.50495 30.7043 8.50495 21.8645C8.50495 19.3458 9.42296 17.2879 10.9263 15.6723C10.6823 15.0908 9.87788 12.7448 11.1539 9.5671C11.1539 9.5671 13.1273 8.94707 17.6181 11.9318C19.4927 11.4207 21.5031 11.1644 23.5002 11.1556C25.4973 11.1644 27.5093 11.4207 29.3873 11.9318C33.8727 8.94707 35.8434 9.5671 35.8434 9.5671C37.1225 12.7448 36.3177 15.0908 36.0737 15.6723C37.5805 17.2879 38.4923 19.3458 38.4923 21.8645C38.4923 30.7253 32.9948 32.6763 27.7618 33.2474C28.6047 33.9633 29.3558 35.3673 29.3558 37.5196C29.3558 40.606 29.3285 43.0903 29.3285 43.8506C29.3285 44.4645 29.7516 45.1838 30.9428 44.9573C40.275 41.9034 47 33.2589 47 23.0695C47 10.3281 36.4785 0 23.5002 0Z"/>
<path fill-rule="evenodd" clip-rule="evenodd" d="M8.90067 33.1229C8.84891 33.2379 8.66523 33.2719 8.49789 33.1932C8.32744 33.118 8.23171 32.9617 8.28697 32.8467C8.33756 32.7287 8.52163 32.6962 8.69169 32.7745C8.86253 32.8502 8.95982 33.0079 8.90067 33.1229Z"/>
<path fill-rule="evenodd" clip-rule="evenodd" d="M9.8526 34.1652C9.74052 34.2672 9.52143 34.2198 9.37277 34.0586C9.21905 33.8978 9.19026 33.6827 9.30389 33.5792C9.41947 33.4772 9.63195 33.5249 9.78605 33.6858C9.93977 33.8485 9.96973 34.062 9.8526 34.1652Z"/>
<path fill-rule="evenodd" clip-rule="evenodd" d="M10.7791 35.494C10.6351 35.5921 10.3997 35.5001 10.2541 35.2949C10.1102 35.0898 10.1102 34.8437 10.2573 34.7452C10.4032 34.6466 10.6351 34.7353 10.7826 34.9389C10.9262 35.1471 10.9262 35.3935 10.7791 35.494Z"/>
<path fill-rule="evenodd" clip-rule="evenodd" d="M12.0486 36.7773C11.9198 36.9167 11.6454 36.8793 11.4446 36.689C11.2392 36.503 11.182 36.239 11.3111 36.0996C11.4415 35.9597 11.7174 35.9991 11.9198 36.1878C12.1237 36.3735 12.186 36.6394 12.0486 36.7773Z"/>
<path fill-rule="evenodd" clip-rule="evenodd" d="M13.7998 37.5226C13.743 37.7033 13.4787 37.7854 13.2125 37.7086C12.9468 37.6295 12.7728 37.4179 12.8265 37.2353C12.8818 37.0534 13.1472 36.9679 13.4153 37.05C13.6807 37.1287 13.855 37.3388 13.7998 37.5226Z"/>
<path fill-rule="evenodd" clip-rule="evenodd" d="M15.7229 37.661C15.7295 37.8513 15.5038 38.0091 15.2244 38.0121C14.9435 38.0186 14.7162 37.8647 14.7131 37.6775C14.7131 37.4853 14.9337 37.3291 15.2147 37.3245C15.4941 37.3191 15.7229 37.4719 15.7229 37.661Z"/>
<path fill-rule="evenodd" clip-rule="evenodd" d="M17.5127 37.3619C17.5462 37.5476 17.352 37.7382 17.0745 37.7886C16.8017 37.8379 16.5492 37.7233 16.5145 37.5392C16.4807 37.3489 16.6784 37.1583 16.9508 37.109C17.2286 37.0617 17.4773 37.1732 17.5127 37.3619Z"/>
</svg>
