<svg width="25" height="23" viewBox="0 0 25 23" fill="none" xmlns="http://www.w3.org/2000/svg">
<path fill-rule="evenodd" clip-rule="evenodd" d="M12.7083 8.125C12.7083 5.90361 13.6997 3.83287 15.4148 2.35111L17.2002 0.808534L14.8008 0.418256C14.1142 0.306571 13.4148 0.25 12.7083 0.25C6.03489 0.25 0.625 5.2868 0.625 11.5C0.625 17.7132 6.03489 22.75 12.7083 22.75C16.799 22.75 20.5435 20.8418 22.7697 17.732L24.1188 15.8473L21.6906 15.9852C21.5168 15.995 21.3421 16 21.1667 16C16.4953 16 12.7083 12.4742 12.7083 8.125ZM12.7083 20.5C7.36958 20.5 3.04166 16.4706 3.04166 11.5C3.04166 6.7164 7.05013 2.80446 12.1104 2.51694C10.9402 4.15205 10.2917 6.09082 10.2917 8.12501C10.2917 13.1189 14.1749 17.2684 19.2834 18.0987C17.527 19.6173 15.1987 20.5 12.7083 20.5Z" fill="black"/>
</svg>
