<svg width="21" height="21" viewBox="0 0 21 21" fill="none" xmlns="http://www.w3.org/2000/svg">
<path d="M15.75 1.96875H13.6631C13.5277 1.5858 13.2772 1.25409 12.9459 1.01912C12.6146 0.784139 12.2187 0.657392 11.8125 0.65625H9.1875C8.78132 0.657392 8.38543 0.784139 8.05411 1.01912C7.7228 1.25409 7.47227 1.5858 7.33687 1.96875H5.25C4.72786 1.96875 4.2271 2.17617 3.85788 2.54538C3.48867 2.9146 3.28125 3.41535 3.28125 3.9375V17.0625C3.28125 17.5846 3.48867 18.0854 3.85788 18.4546C4.2271 18.8238 4.72786 19.0312 5.25 19.0312H15.75C16.2721 19.0312 16.7729 18.8238 17.1421 18.4546C17.5113 18.0854 17.7188 17.5846 17.7188 17.0625V3.9375C17.7188 3.41535 17.5113 2.9146 17.1421 2.54538C16.7729 2.17617 16.2721 1.96875 15.75 1.96875ZM8.53125 2.625C8.53125 2.45095 8.60039 2.28403 8.72346 2.16096C8.84653 2.03789 9.01345 1.96875 9.1875 1.96875H11.8125C11.9865 1.96875 12.1535 2.03789 12.2765 2.16096C12.3996 2.28403 12.4688 2.45095 12.4688 2.625V3.28125H8.53125V2.625ZM16.4062 17.0625C16.4062 17.2365 16.3371 17.4035 16.214 17.5265C16.091 17.6496 15.924 17.7188 15.75 17.7188H5.25C5.07595 17.7188 4.90903 17.6496 4.78596 17.5265C4.66289 17.4035 4.59375 17.2365 4.59375 17.0625V3.9375C4.59375 3.76345 4.66289 3.59653 4.78596 3.47346C4.90903 3.35039 5.07595 3.28125 5.25 3.28125H7.21875V4.59375H13.7812V3.28125H15.75C15.924 3.28125 16.091 3.35039 16.214 3.47346C16.3371 3.59653 16.4062 3.76345 16.4062 3.9375V17.0625Z" fill="#2F6BF0"/>
<path d="M13.7812 9.84375H7.21875V11.1562H13.7812V9.84375Z" fill="#2F6BF0"/>
<path d="M10.5 12.4688H7.21875V13.7812H10.5V12.4688Z" fill="#2F6BF0"/>
</svg>
