<svg width="50" height="50" viewBox="0 0 25 25" fill="#F8F8FA" xmlns="http://www.w3.org/2000/svg">
<path d="M18 12.75H6C5.00544 12.75 4.05161 13.1451 3.34835 13.8483C2.64509 14.5516 2.25 15.5054 2.25 16.5V21.75H3.75V16.5C3.75 15.9033 3.98705 15.331 4.40901 14.909C4.83097 14.4871 5.40326 14.25 6 14.25H18C18.5967 14.25 19.169 14.4871 19.591 14.909C20.0129 15.331 20.25 15.9033 20.25 16.5V21.75H21.75V16.5C21.75 15.5054 21.3549 14.5516 20.6516 13.8483C19.9484 13.1451 18.9946 12.75 18 12.75Z"/>
<path d="M12 11.25C12.89 11.25 13.76 10.9861 14.5001 10.4916C15.2401 9.99715 15.8169 9.29434 16.1575 8.47208C16.4981 7.64981 16.5872 6.74501 16.4135 5.8721C16.2399 4.99918 15.8113 4.19736 15.182 3.56802C14.5526 2.93869 13.7508 2.5101 12.8779 2.33647C12.005 2.16283 11.1002 2.25195 10.2779 2.59254C9.45566 2.93314 8.75285 3.50991 8.25839 4.24994C7.76392 4.98996 7.5 5.85999 7.5 6.75C7.5 7.94348 7.97411 9.08807 8.81802 9.93198C9.66193 10.7759 10.8065 11.25 12 11.25ZM12 3.75C12.5933 3.75 13.1734 3.92595 13.6667 4.25559C14.1601 4.58524 14.5446 5.05377 14.7716 5.60195C14.9987 6.15013 15.0581 6.75333 14.9424 7.33527C14.8266 7.91722 14.5409 8.45177 14.1213 8.87132C13.7018 9.29088 13.1672 9.5766 12.5853 9.69236C12.0033 9.80811 11.4001 9.7487 10.8519 9.52164C10.3038 9.29458 9.83524 8.91006 9.50559 8.41671C9.17595 7.92337 9 7.34335 9 6.75C9 5.95435 9.31607 5.19129 9.87868 4.62868C10.4413 4.06607 11.2044 3.75 12 3.75Z" />
</svg>
