<svg width="22" height="22" viewBox="0 0 22 22" fill="none" xmlns="http://www.w3.org/2000/svg">
<path d="M20.4255 19.4493L13.5505 12.5743C14.666 11.2083 15.2139 9.46599 15.081 7.70747C14.9481 5.94895 14.1445 4.30875 12.8364 3.126C11.5283 1.94326 9.81571 1.30842 8.05274 1.35276C6.28976 1.3971 4.61124 2.11722 3.36423 3.36423C2.11722 4.61124 1.3971 6.28976 1.35276 8.05274C1.30842 9.81571 1.94326 11.5283 3.126 12.8364C4.30875 14.1445 5.94895 14.9481 7.70747 15.081C9.46599 15.2139 11.2083 14.666 12.5743 13.5505L19.4493 20.4255L20.4255 19.4493ZM2.74988 8.24988C2.74988 7.16208 3.07245 6.09871 3.6768 5.19424C4.28114 4.28977 5.14013 3.58482 6.14512 3.16854C7.15011 2.75226 8.25598 2.64334 9.32288 2.85556C10.3898 3.06778 11.3698 3.5916 12.139 4.36079C12.9082 5.12998 13.432 6.10999 13.6442 7.17688C13.8564 8.24378 13.7475 9.34964 13.3312 10.3546C12.9149 11.3596 12.21 12.2186 11.3055 12.823C10.401 13.4273 9.33768 13.7499 8.24988 13.7499C6.79119 13.7499 5.39224 13.1704 4.36079 12.139C3.32934 11.1075 2.74988 9.70857 2.74988 8.24988V8.24988Z" fill="#2F6BF0"/>
</svg>
