<svg width="21" height="21" viewBox="0 0 21 21" fill="none" xmlns="http://www.w3.org/2000/svg">
<path d="M10.5 7.875C9.98083 7.875 9.47331 8.02895 9.04163 8.31739C8.60995 8.60583 8.2735 9.0158 8.07482 9.49546C7.87614 9.97511 7.82415 10.5029 7.92544 11.0121C8.02673 11.5213 8.27673 11.989 8.64385 12.3562C9.01096 12.7233 9.47869 12.9733 9.98789 13.0746C10.4971 13.1758 11.0249 13.1239 11.5045 12.9252C11.9842 12.7265 12.3942 12.3901 12.6826 11.9584C12.971 11.5267 13.125 11.0192 13.125 10.5C13.125 9.80381 12.8484 9.13613 12.3562 8.64384C11.8639 8.15156 11.1962 7.875 10.5 7.875ZM10.5 11.8125C10.2404 11.8125 9.98665 11.7355 9.77082 11.5913C9.55498 11.4471 9.38675 11.2421 9.28741 11.0023C9.18807 10.7624 9.16208 10.4985 9.21272 10.2439C9.26336 9.98934 9.38837 9.75548 9.57192 9.57192C9.75548 9.38837 9.98935 9.26336 10.2439 9.21272C10.4985 9.16208 10.7624 9.18807 11.0023 9.28741C11.2421 9.38675 11.4471 9.55497 11.5913 9.77081C11.7355 9.98665 11.8125 10.2404 11.8125 10.5C11.8125 10.8481 11.6742 11.1819 11.4281 11.4281C11.1819 11.6742 10.8481 11.8125 10.5 11.8125Z" fill="#2F6BF0"/>
<path d="M18.0929 12.0094L17.1873 11.4909C17.2909 10.8388 17.2909 10.1743 17.1873 9.52219L18.0929 9.00375C18.3068 8.88068 18.4943 8.71664 18.6448 8.52102C18.7952 8.32539 18.9056 8.10202 18.9696 7.86368C19.0336 7.62535 19.0499 7.37673 19.0178 7.13207C18.9856 6.8874 18.9054 6.65148 18.782 6.43781L18.1716 5.38125C17.9153 4.95745 17.5027 4.65123 17.0229 4.5285C16.543 4.40577 16.0341 4.47633 15.6057 4.725L14.7001 5.25C14.1825 4.83328 13.6051 4.497 12.9873 4.2525V3.16969C12.9821 2.67533 12.7821 2.20298 12.4306 1.85525C12.0792 1.50751 11.6048 1.31247 11.1104 1.3125H9.88977C9.39199 1.3125 8.9146 1.51024 8.56262 1.86222C8.21064 2.21421 8.01289 2.6916 8.01289 3.18938V4.20656C7.39506 4.45106 6.81763 4.78734 6.30008 5.20406L5.39446 4.67906C4.9669 4.42692 4.45688 4.35441 3.97599 4.4774C3.4951 4.60039 3.08252 4.90886 2.82852 5.33531L2.21821 6.42469C1.96954 6.85307 1.89898 7.36195 2.02171 7.84183C2.14444 8.32171 2.45065 8.73423 2.87446 8.99062L3.78008 9.50906C3.67647 10.1612 3.67647 10.8257 3.78008 11.4778L2.87446 11.9963C2.448 12.2502 2.13953 12.6628 2.01654 13.1437C1.89355 13.6246 1.96606 14.1346 2.21821 14.5622L2.82852 15.6187C3.07952 16.0481 3.48965 16.3612 3.96998 16.4902C4.45031 16.6192 4.96213 16.5537 5.39446 16.3078L6.30008 15.7828C6.81763 16.1995 7.39506 16.5358 8.01289 16.7803V17.8172C8.01463 18.3138 8.21314 18.7895 8.56493 19.1401C8.91673 19.4907 9.39313 19.6875 9.88977 19.6875H11.1104C11.6082 19.6875 12.0856 19.4898 12.4375 19.1378C12.7895 18.7858 12.9873 18.3084 12.9873 17.8106V16.7934C13.6051 16.5489 14.1825 16.2127 14.7001 15.7959L15.6057 16.3209C15.8194 16.4444 16.0553 16.5245 16.3 16.5567C16.5446 16.5889 16.7932 16.5726 17.0316 16.5086C17.2699 16.4445 17.4933 16.3342 17.6889 16.1837C17.8845 16.0333 18.0486 15.8458 18.1716 15.6319L18.782 14.5753C19.0278 14.143 19.0934 13.6312 18.9644 13.1508C18.8354 12.6705 18.5223 12.2604 18.0929 12.0094ZM17.6401 13.9191L17.0626 14.9756C16.9883 15.105 16.8659 15.1997 16.722 15.239C16.5781 15.2784 16.4245 15.2592 16.2948 15.1856L14.5688 14.1881L14.2145 14.5097C13.6279 15.0533 12.9289 15.4611 12.167 15.7041L11.7076 15.8484V17.8172C11.7076 17.9669 11.6481 18.1104 11.5423 18.2163C11.4364 18.3221 11.2929 18.3816 11.1432 18.3816H9.88977C9.74009 18.3816 9.59654 18.3221 9.4907 18.2163C9.38486 18.1104 9.32539 17.9669 9.32539 17.8172V15.8484L8.86602 15.7041C8.10412 15.4611 7.40506 15.0533 6.81852 14.5097L6.46414 14.1881L4.73821 15.1856C4.60828 15.258 4.45524 15.2769 4.31164 15.2381C4.24006 15.2195 4.17296 15.1867 4.11433 15.1416C4.05571 15.0965 4.00675 15.04 3.97039 14.9756L3.36008 13.9191C3.3192 13.8541 3.29199 13.7816 3.2801 13.7058C3.26821 13.63 3.2719 13.5526 3.29094 13.4783C3.30998 13.4039 3.34397 13.3343 3.39083 13.2735C3.4377 13.2128 3.49646 13.1623 3.56352 13.125L5.28289 12.1341L5.17789 11.6616C5.0925 11.2736 5.0485 10.8776 5.04664 10.4803C5.04769 10.0826 5.09393 9.68632 5.18446 9.29906L5.28289 8.82656L3.56352 7.875C3.49914 7.83768 3.44278 7.788 3.39767 7.72881C3.35257 7.66963 3.31962 7.6021 3.30071 7.53013C3.2818 7.45816 3.27731 7.38316 3.2875 7.30945C3.29769 7.23574 3.32236 7.16477 3.36008 7.10063L3.97039 6.04406C4.04465 5.9147 4.1671 5.81999 4.31097 5.78064C4.45485 5.74129 4.60845 5.7605 4.73821 5.83406L6.46414 6.83156L6.81852 6.51C7.40506 5.96639 8.10412 5.55862 8.86602 5.31563L9.32539 5.17125V3.2025C9.32364 3.12729 9.33695 3.05249 9.36453 2.98249C9.39211 2.91249 9.4334 2.84872 9.48598 2.79491C9.53857 2.74111 9.60137 2.69836 9.67072 2.66918C9.74006 2.64 9.81454 2.62498 9.88977 2.625H11.1104C11.2601 2.625 11.4036 2.68446 11.5095 2.7903C11.6153 2.89614 11.6748 3.03969 11.6748 3.18938V5.15813L12.1341 5.3025C12.896 5.54549 13.5951 5.95327 14.1816 6.49687L14.536 6.81844L16.262 5.82094C16.3919 5.74855 16.5449 5.72971 16.6885 5.76844C16.7601 5.78706 16.8272 5.8199 16.8858 5.865C16.9445 5.91009 16.9934 5.96653 17.0298 6.03094L17.6401 7.0875C17.6799 7.15217 17.7062 7.22421 17.7176 7.2993C17.7289 7.3744 17.7249 7.45101 17.7059 7.52453C17.6869 7.59806 17.6533 7.667 17.607 7.72722C17.5607 7.78744 17.5028 7.8377 17.4366 7.875L15.7501 8.84625L15.8551 9.31875C15.9405 9.70675 15.9845 10.1027 15.9863 10.5C15.9853 10.8977 15.9391 11.294 15.8485 11.6812L15.7501 12.1538L17.4366 13.125C17.5037 13.1623 17.5625 13.2128 17.6093 13.2735C17.6562 13.3343 17.6902 13.4039 17.7092 13.4783C17.7283 13.5526 17.732 13.63 17.7201 13.7058C17.7082 13.7816 17.681 13.8541 17.6401 13.9191Z" fill="#2F6BF0"/>
</svg>
