<svg width="37" height="37" viewBox="0 0 37 37" fill="none" xmlns="http://www.w3.org/2000/svg">
<path fill-rule="evenodd" clip-rule="evenodd" d="M33.9168 18.4986C33.9168 15.9048 32.1741 13.8736 29.2918 13.8736H24.5542L24.5971 13.7569C24.6399 13.6412 24.7604 13.3237 24.8775 13.015L24.878 13.0137C24.9818 12.7401 25.0829 12.4736 25.1248 12.3611C25.4179 11.5743 25.6318 10.9404 25.8049 10.3126C26.0665 9.36367 26.2085 8.50878 26.2085 7.70694C26.2085 5.4376 24.8084 4.02809 22.7371 3.42494C21.8028 3.1529 20.9896 3.0818 20.0418 3.08194H19.3026L18.8397 3.65835C18.3169 4.30948 17.2899 5.48297 16.106 6.83589L16.1059 6.83591C13.9218 9.33174 11.2033 12.4382 10.1294 14.0022C9.8508 13.9194 9.55567 13.875 9.25016 13.875H6.16683C4.46395 13.875 3.0835 15.2554 3.0835 16.9583V30.8333C3.0835 32.5362 4.46395 33.9167 6.16683 33.9167H9.25016C10.3095 33.9167 11.244 33.3825 11.7991 32.5687C12.2668 32.8712 12.7886 33.1237 13.3558 33.3266C14.6544 33.7913 15.9423 33.9339 17.0115 33.9144L27.7501 33.9153C31.9977 33.9153 33.9168 27.6616 33.9168 18.4986ZM14.3945 30.4235C13.0303 29.9354 12.3335 29.1396 12.3335 27.7486V16.9583V16.9569C12.3335 16.5866 12.402 16.2587 12.552 15.9086C12.8214 15.2796 15.2656 12.4909 17.5824 9.84781C18.7781 8.48367 19.9397 7.1583 20.7509 6.1886C21.1386 6.21768 21.5039 6.27725 21.8751 6.38533C22.7585 6.64257 23.1252 7.01169 23.1252 7.70694C23.1252 8.19501 23.0264 8.78968 22.8325 9.49313C22.6876 10.0188 22.4999 10.575 22.2355 11.2846C22.1981 11.385 22.105 11.6305 22.0058 11.8919L22.0054 11.8929L22.0049 11.8944C21.8835 12.2141 21.7534 12.5572 21.7052 12.6874C21.5047 13.2295 21.3727 13.6286 21.2823 13.9913C20.8983 15.533 21.2836 16.9569 23.1252 16.9569H29.2918C30.3575 16.9569 30.8335 17.5118 30.8335 18.4986C30.8335 25.8843 29.3151 30.8319 27.7502 30.8319H16.9585L16.9016 30.8329C16.2268 30.845 15.279 30.74 14.3945 30.4235ZM6.16685 30.8333V16.9583H9.25018V30.8333H6.16685Z" fill="black"/>
</svg>
