<svg width="36" height="36" viewBox="0 0 36 36" fill="none" xmlns="http://www.w3.org/2000/svg">
<path fill-rule="evenodd" clip-rule="evenodd" d="M24.2055 23.3367L24.2054 23.3365C24.0913 23.0358 23.9739 22.7263 23.9322 22.6136L23.8905 22.5H28.5C31.3044 22.5 33 20.5237 33 18C33 9.08466 31.1327 3.00001 27 3.00001C27 3.00001 16.5347 3.00035 16.4984 2.99958C15.5113 2.98188 14.2582 3.12068 12.9947 3.57274C12.4426 3.77028 11.9346 4.01606 11.4794 4.31057C10.9393 3.51937 10.0303 3.00001 9 3.00001H6C4.34315 3.00001 3 4.34316 3 6.00001V19.5C3 21.1569 4.34315 22.5 6 22.5H9C9.29754 22.5 9.58495 22.4567 9.8563 22.376C10.9016 23.8981 13.5459 26.9197 15.6705 29.3474L15.6705 29.3475L15.6705 29.3475C16.8225 30.6639 17.8217 31.8057 18.3304 32.4392L18.7807 33H19.5115C20.4222 33.0002 21.2134 32.931 22.1224 32.6663C24.1378 32.0794 25.5 30.708 25.5 28.5C25.5 27.7198 25.3619 26.8881 25.1073 25.9648C24.9389 25.354 24.7308 24.7372 24.4456 23.9717C24.4048 23.8622 24.3065 23.6029 24.2055 23.3367ZM12 19.5V9.00001C12 7.64667 12.6779 6.87231 14.0053 6.39739C14.8659 6.08947 15.7881 5.98733 16.4484 5.99913C21.7084 5.99975 23.2546 5.99994 24.8008 5.99999L27 6.00001C28.5227 6.00001 30 10.8139 30 18C30 18.9602 29.5368 19.5 28.5 19.5H22.5C20.7082 19.5 20.3333 20.8855 20.707 22.3855C20.7949 22.7384 20.9234 23.1268 21.1184 23.6542C21.1651 23.7804 21.2911 24.1124 21.4088 24.4226L21.4093 24.4241L21.4099 24.4257L21.4103 24.4266L21.4109 24.4282C21.5074 24.6826 21.598 24.9214 21.6344 25.019C21.8916 25.7095 22.0742 26.2506 22.2152 26.7621C22.4039 27.4465 22.5 28.0251 22.5 28.5C22.5 29.1765 22.1433 29.5356 21.2837 29.7859C20.9226 29.8911 20.5671 29.949 20.1899 29.9773C19.4007 29.0338 18.2704 27.7443 17.107 26.417L17.107 26.417L17.1069 26.4168C14.8528 23.8452 12.4747 21.132 12.2126 20.52C12.0666 20.1794 12 19.8603 12 19.5ZM6 19.5V6.00001H9V19.5H6Z" fill="black"/>
</svg>
