              <svg width="30" height="30" viewBox="0 0 30 30" xmlns="http://www.w3.org/2000/svg">
                <g id="24 / basic / trash-empty">
                  <path id="icon" fill-rule="evenodd" clip-rule="evenodd" d="M11.25 1.25H18.75C20.1307 1.25 21.25 2.36929 21.25 3.75V5H25C26.3807 5 27.5 6.11929 27.5 7.5V10C27.5 11.3807 26.3807 12.5 25 12.5H24.8998L23.75 26.25C23.75 27.6307 22.6307 28.75 21.25 28.75H8.74997C7.36926 28.75 6.24997 27.6307 6.25429 26.3538L5.09981 12.5H5C3.61929 12.5 2.5 11.3807 2.5 10V7.5C2.5 6.11929 3.61929 5 5 5H8.75V3.75C8.75 2.36929 9.86929 1.25 11.25 1.25ZM5 7.5H8.75H21.25H25V10H5V7.5ZM7.6081 12.5H22.3915L21.2543 26.1462L21.25 26.25H8.74998L7.6081 12.5ZM18.75 3.75V5H11.25V3.75H18.75ZM10.3661 15.8839L12.1339 14.1161L15 16.9822L17.8661 14.1161L19.6339 15.8839L16.7678 18.75L19.6339 21.6161L17.8661 23.3839L15 20.5178L12.1339 23.3839L10.3661 21.6161L13.2323 18.75L10.3661 15.8839Z"/>
                </g>
              </svg>
